<svg width="845" height="1024" viewBox="0 0 845 1024" fill="none" xmlns="http://www.w3.org/2000/svg">
<path fill-rule="evenodd" clip-rule="evenodd" d="M789.176 -323.741C697.813 -324.311 607.429 -307.222 523.15 -273.442L502.742 -147.843C425.206 -106.419 357.874 -48.3965 305.27 22.1312L177.788 23.5623C131.989 102.058 101.29 188.874 88.307 279.01L187.103 359.398C184.29 447.275 200.826 534.732 235.529 615.517L172.902 726.426C217.897 805.599 278.173 875.214 349.469 931.57L468.673 886.359C543.396 932.813 627.264 962.248 714.571 972.504L779.426 1081.98C870.22 1082.66 960.604 1065.57 1045.45 1031.68L1065.86 906.085C1143.4 864.661 1210.73 806.638 1263.33 736.11L1390.24 734.788C1436.6 656.185 1466.73 569.477 1479.72 479.341L1381.48 398.848C1384.29 310.97 1367.75 223.513 1333.05 142.729L1395.12 31.9249C1350.13 -47.249 1290.42 -116.971 1218.56 -173.22L1099.93 -128.118C1025.21 -174.572 941.338 -204.006 854.031 -214.263L789.176 -323.741ZM733.731 111.72C880.952 83.8845 1023.54 181.025 1051.45 328.61C1079.35 476.195 982.07 618.69 834.849 646.525C687.059 674.469 544.481 577.325 516.576 429.74C488.672 282.155 585.941 139.663 733.731 111.72Z" fill="#D5D7FA"/>
</svg>
