<svg width="329" height="507" viewBox="0 0 329 507" fill="none" xmlns="http://www.w3.org/2000/svg">
<path fill-rule="evenodd" clip-rule="evenodd" d="M86.3065 34.8807C57.9065 34.7034 29.811 40.0156 3.61284 50.516L-2.731 89.5581C-26.8327 102.435 -47.7628 120.471 -64.1147 142.394L-103.742 142.839C-117.979 167.239 -127.521 194.226 -131.557 222.245L-100.847 247.233C-101.721 274.55 -96.5809 301.735 -85.7937 326.847L-105.261 361.323C-91.2743 385.934 -72.5378 407.573 -50.3755 425.092L-13.3211 411.038C9.90616 425.478 35.9764 434.628 63.1156 437.816L83.2756 471.847C111.499 472.058 139.594 466.745 165.969 456.212L172.313 417.17C196.415 404.293 217.345 386.257 233.697 364.333L273.145 363.922C287.558 339.489 296.924 312.536 300.96 284.517L270.422 259.496C271.296 232.179 266.156 204.994 255.369 179.882L274.664 145.439C260.677 120.828 242.117 99.1547 219.778 81.6699L182.903 95.6896C159.676 81.2497 133.606 72.1 106.467 68.9117L86.3065 34.8807ZM69.0715 170.243C114.835 161.59 159.159 191.786 167.833 237.663C176.507 283.539 146.267 327.833 100.504 336.486C54.5636 345.172 10.2435 314.975 1.56943 269.099C-7.10464 223.222 23.1313 178.929 69.0715 170.243Z" fill="#D5D7FA"/>
</svg>
