<svg width="403" height="483" viewBox="0 0 403 483" fill="none" xmlns="http://www.w3.org/2000/svg">
<path fill-rule="evenodd" clip-rule="evenodd" d="M195.337 99.0641C85.3177 101.905 58.162 160.088 47.4386 184.176C89.7752 148.904 131.276 139.661 192.274 150.31C205.505 152.607 212.467 98.6223 195.337 99.0641Z" fill="#6463EC"/>
<path fill-rule="evenodd" clip-rule="evenodd" d="M281.93 175.1C259.091 173.12 240.291 195.983 244.051 217.407C246.14 229.278 224.273 236.395 211.879 247.31C201.155 256.781 209.514 261.408 223.58 264.238C245.863 267.03 262.852 241.687 285.134 217.778C299.339 201.441 296.135 187.507 281.93 175.1Z" fill="#3534BB"/>
<path fill-rule="evenodd" clip-rule="evenodd" d="M82.8622 93.1172C127.149 197.909 99.4359 276.695 81.8885 311.546C62.8091 349.083 43.0324 342.925 -0.000610352 329.954C98.46 455.02 370.587 417.915 209.735 145.943L82.8622 93.1172Z" fill="#FDA81E"/>
<path fill-rule="evenodd" clip-rule="evenodd" d="M127.654 255.493C135.871 276.333 153.143 299.721 178.35 308.695C197.15 315.401 211.913 295.732 203.417 289.364C181.135 272.675 163.727 249.984 153.282 217.354L127.654 255.493Z" fill="#FD9E04"/>
<path fill-rule="evenodd" clip-rule="evenodd" d="M94.5988 338.83C89.7349 336.345 86.1074 331.74 85.2836 326.102C83.9143 316.731 90.6637 308.049 100.454 306.711C110.107 305.391 119.077 311.925 120.447 321.296C120.514 321.753 120.58 322.208 120.645 322.656C115.681 331.032 106.876 337.193 96.2583 338.644C95.7068 338.72 95.1543 338.782 94.5988 338.83Z" fill="#5958EB"/>
<path fill-rule="evenodd" clip-rule="evenodd" d="M116.493 342.196C98.2494 372.779 84.6014 392.105 60.7871 411.741C36.1371 432.155 6.47251 408.902 31.8188 389.879C63.9891 365.871 84.8778 335.942 103.122 321.985L116.493 342.196Z" fill="#4140CA"/>
<path fill-rule="evenodd" clip-rule="evenodd" d="M364.585 165.282C402.326 191.163 410.126 257.543 394.249 290.199C398.984 308.918 387.703 335.902 379.904 348.686C362.914 376.42 326.149 361.547 336.454 335.131C354.559 288.492 371.273 269.297 349.13 239.595L364.585 165.282Z" fill="#6463EC"/>
<path fill-rule="evenodd" clip-rule="evenodd" d="M358.214 363.434C357.244 363.527 356.328 363.566 355.412 363.553C356.49 357.791 358.969 353.035 361.609 348.37C360.963 353.489 360.262 358.589 358.214 363.434ZM344.204 360.508C343.557 360.158 343.018 359.78 342.425 359.376C344.85 354.049 348.461 349.715 352.179 345.484C349.916 350.681 347.598 355.861 344.204 360.508Z" fill="#5958EB"/>
<path fill-rule="evenodd" clip-rule="evenodd" d="M350.059 302.562L380.712 258.616C381.574 285.3 368.006 340.364 337.855 354.695C330.891 349.89 332.183 345.953 336.419 335.121C341.301 322.511 346.11 311.908 350.059 302.562Z" fill="#5755EA"/>
<path fill-rule="evenodd" clip-rule="evenodd" d="M195.107 99.0591C85.0879 101.9 131.047 139.656 192.045 150.305C236.749 158.095 269.893 181.988 269.614 204.352C269.614 207.5 270.451 210.949 270.033 212.722C252.347 217.9 224.356 243.984 203.327 258.292C182.438 272.519 163.215 290.422 142.464 300.406C135.362 303.799 131.884 306.562 126.035 309.026C53.0601 339.978 49.5752 455.039 69.0724 465.942C123.943 496.613 206.666 443.019 211.819 404.255C301.645 413.253 362.089 351.092 379.775 263.572C390.917 209.093 376.291 162.074 334.65 138.748C280.058 108.302 234.38 98.0475 195.107 99.0591Z" fill="#6463EC"/>
<path fill-rule="evenodd" clip-rule="evenodd" d="M195.214 325.799L322.148 254.903L288.227 235.951L161.293 306.847L195.214 325.799Z" fill="#141346"/>
<path d="M192.664 315.402C202.558 319.058 212.91 316.122 215.785 308.844C218.659 301.567 212.967 292.703 203.073 289.047C193.178 285.391 182.826 288.327 179.952 295.604C177.077 302.882 182.769 311.746 192.664 315.402Z" fill="#323264"/>
<path fill-rule="evenodd" clip-rule="evenodd" d="M271.947 334.68L353.263 289.271C347.691 278.243 338.138 268.369 323.687 259.936L242.371 305.346C255.475 311.942 265.027 322.027 271.947 334.68Z" fill="#141346"/>
<path fill-rule="evenodd" clip-rule="evenodd" d="M268.061 400.028C263.326 401.336 258.449 402.402 253.296 403.217L261.516 377.36C264.998 384.79 267.503 392.316 268.061 400.028Z" fill="#5453EA"/>
<path fill-rule="evenodd" clip-rule="evenodd" d="M261.556 377.346C263.506 412.578 248.464 431.082 239.551 460.112C230.499 490.292 188.442 490.389 198.887 461.014C212.256 423.939 226.738 410.329 213.368 384.578C213.507 376.129 236.071 371.471 261.556 377.346Z" fill="#6463EC"/>
<path fill-rule="evenodd" clip-rule="evenodd" d="M131.555 304.174C141.582 301.452 155.228 312.109 168.319 316.827C216.783 334.307 235.445 376.478 202.439 426.203C177.092 464.418 107.182 495.598 69.1629 473.369C46.6019 460.148 51.1998 400.517 60.9484 376.783C76.1283 340.276 96.5992 314.372 131.555 304.174Z" fill="#6E6DED"/>
<path d="M181.634 382.561C190.581 387.557 201.799 384.967 206.689 376.775C211.579 368.584 208.288 357.891 199.341 352.895C190.394 347.899 179.18 350.491 174.29 358.683C169.4 366.875 172.687 377.564 181.634 382.561Z" fill="#8282EF"/>
<path d="M184.043 378.738C190.636 382.419 198.903 380.511 202.507 374.474C206.11 368.438 203.685 360.559 197.092 356.877C190.499 353.195 182.235 355.105 178.632 361.142C175.028 367.179 177.45 375.056 184.043 378.738Z" fill="#7675EE"/>
<path d="M143.188 421.042C147.006 421.042 150.103 418.049 150.103 414.357C150.103 410.665 147.006 407.672 143.188 407.672C139.371 407.672 136.28 410.665 136.28 414.357C136.28 418.049 139.371 421.042 143.188 421.042Z" fill="#16164F"/>
<path d="M68.3007 398.082C71.5669 398.082 74.2168 395.521 74.2168 392.361C74.2168 389.202 71.5669 386.641 68.3007 386.641C65.0345 386.641 62.3892 389.202 62.3892 392.361C62.3892 395.521 65.0345 398.082 68.3007 398.082Z" fill="#16164F"/>
<path fill-rule="evenodd" clip-rule="evenodd" d="M84.4868 434.473C90.9929 436.412 97.8286 441.479 96.1985 446.594C95.3771 449.172 91.634 451.62 88.2062 453.869C84.8508 456.09 81.8028 458.133 78.5786 457.172C72.0725 455.232 66.2414 444.448 67.8717 439.331C69.5019 434.216 77.9807 432.533 84.4868 434.473Z" fill="black"/>
<path fill-rule="evenodd" clip-rule="evenodd" d="M174.984 357.314L178.046 356.295C176.932 359.286 176.375 362.279 176.654 365.271C177.629 366.356 178.741 366.325 179.994 365.92C179.437 368.491 179.997 371.059 181.251 373.63C183.757 372.51 186.818 371.899 190.439 371.682C193.363 375.316 196.008 378.426 198.376 381.159C199.908 379.005 202.137 377.253 205.062 376.002C207.151 377.432 208.407 379.967 209.104 383.203L202.695 391.368C180.691 397.491 166.904 388.86 158.13 371.296L174.984 357.314Z" fill="#6E6DED"/>
<path fill-rule="evenodd" clip-rule="evenodd" d="M87.0905 332.443C86.5335 331.514 86.2527 330.488 86.2527 329.322C87.9239 328.895 89.4569 328.431 90.8496 327.29C93.7742 323.882 96.4213 320.319 98.2317 316.235C100.042 316.835 101.85 316.774 103.661 315.94C104.496 313.846 105.469 311.888 107.001 310.296C109.229 310.35 111.183 310.712 112.855 311.268C113.272 310.74 113.269 310.149 112.991 309.471C114.105 309.471 114.804 310.488 115.64 310.293L101.43 333.737L87.0905 332.443Z" fill="#6E6DED"/>
<path fill-rule="evenodd" clip-rule="evenodd" d="M237.623 465.242C225.646 490.211 189.018 488.637 198.906 461.028C208.098 435.353 217.851 420.931 218.686 405.935V405.934C225.51 412.58 229.406 421.701 232.052 431.93C234.141 430.965 240.41 427.182 241.246 422.652C245.703 426.714 232.888 450.381 237.623 465.242Z" fill="#5958EB"/>
<path fill-rule="evenodd" clip-rule="evenodd" d="M215.266 482.586C214.296 482.738 213.379 482.834 212.517 482.875C213.972 478.93 214.888 474.985 215.75 471.04C216.128 474.769 216.182 478.572 215.266 482.586ZM201.632 479.811C200.824 479.177 200.124 478.445 199.532 477.616C200.717 473.705 202.927 470.345 205.459 467.148C203.897 471.31 202.495 475.506 201.632 479.811Z" fill="#4241E8"/>
<path fill-rule="evenodd" clip-rule="evenodd" d="M206.202 46.9578C211.419 45.2673 215.77 41.2925 217.527 35.8584C220.449 26.8259 215.243 17.2003 205.806 14.3449C196.502 11.5297 186.556 16.5707 183.634 25.6032C183.492 26.0442 183.35 26.4825 183.21 26.9144C186.706 35.9578 194.362 43.4174 204.596 46.514C205.128 46.6749 205.662 46.8226 206.202 46.9578Z" fill="#FDA515"/>
<path fill-rule="evenodd" clip-rule="evenodd" d="M183.322 15.7543C173.884 11.4962 156.345 14.2276 142.636 16.8304C91.8838 26.4826 66.403 65.1709 90.6408 119.413C109.249 161.095 173.01 202.821 214.252 186.846C238.73 177.337 244.184 117.773 238.541 92.8243C229.679 54.4205 213.872 29.5006 183.322 15.7543Z" fill="#FDB642"/>
<path d="M113.958 49.8261C106.093 56.3061 94.5751 55.7234 88.2332 48.5227C81.8912 41.3221 83.1269 30.2303 90.9912 23.7503C98.8555 17.2703 110.37 17.8565 116.712 25.0571C123.053 32.2577 121.822 43.3461 113.958 49.8261Z" fill="#FED798"/>
<path d="M110.511 46.3798C104.716 51.155 96.228 50.7255 91.5546 45.4193C86.8811 40.1131 87.7918 31.9395 93.587 27.1643C99.3823 22.3891 107.867 22.8211 112.541 28.1273C117.214 33.4335 116.306 41.6046 110.511 46.3798Z" fill="#FEE7C0"/>
<path d="M149.935 123.651C146.168 123.053 143.614 119.614 144.232 115.971C144.851 112.327 148.409 109.859 152.175 110.458C155.942 111.056 158.491 114.494 157.873 118.138C157.254 121.781 153.702 124.25 149.935 123.651Z" fill="#16164F"/>
<path d="M227.433 112.726C224.21 112.214 222.024 109.272 222.553 106.154C223.083 103.037 226.127 100.925 229.35 101.437C232.573 101.949 234.754 104.891 234.225 108.008C233.695 111.126 230.656 113.238 227.433 112.726Z" fill="#16164F"/>
<path fill-rule="evenodd" clip-rule="evenodd" d="M205.967 146.072C199.222 146.966 191.628 150.894 192.38 156.198C192.758 158.87 196.042 161.872 199.047 164.629C201.986 167.346 204.652 169.84 207.994 169.397C214.739 168.503 222.3 158.775 221.549 153.471C220.797 148.167 212.712 145.178 205.967 146.072Z" fill="black"/>
<path fill-rule="evenodd" clip-rule="evenodd" d="M115.583 23.8285L112.38 23.3618C114.035 26.1091 115.143 28.9552 115.429 31.9463C114.673 33.1834 113.574 33.3476 112.266 33.1695C113.294 35.5997 113.224 38.2241 112.472 40.9712C109.797 40.3092 106.673 40.2435 103.071 40.6641C100.875 44.7503 98.8558 48.2722 97.0388 51.3746C95.1291 49.5245 92.6087 48.1912 89.4983 47.4725C87.7115 49.2451 86.95 51.9583 86.8706 55.2623L94.7011 62.1712C117.487 64.3403 129.432 53.4389 134.774 34.6293L115.583 23.8285Z" fill="#FDB642"/>
<path fill-rule="evenodd" clip-rule="evenodd" d="M214.251 42.8134C214.956 41.9836 215.849 40.0573 216.044 38.9076C214.467 38.2242 213.032 37.5254 211.849 36.1812C209.534 32.3599 207.519 28.4291 206.417 24.1152C204.53 24.4242 202.756 24.0796 201.109 22.973C200.635 20.7765 200.003 18.6913 198.758 16.8801C196.551 16.5839 194.562 16.6352 192.819 16.9222C192.496 16.3356 192.598 15.7526 192.986 15.1277C191.887 14.9531 188.916 17.4666 187.1 17.3609L200.328 40.8843L214.251 42.8134Z" fill="#FDB642"/>
<path fill-rule="evenodd" clip-rule="evenodd" d="M123.342 250.386C140.61 269.48 156.349 296.705 181.556 305.679C200.356 312.384 215.118 292.715 206.623 286.348C184.341 269.658 164.566 249.567 154.121 216.937L123.342 250.386Z" fill="#FDA81E"/>
<path fill-rule="evenodd" clip-rule="evenodd" d="M196.657 219.306C213.926 238.4 228.13 256.119 253.337 265.093C272.138 271.799 284.952 254.979 276.457 248.612C254.175 231.922 238.855 221.098 228.41 188.467L196.657 219.306Z" fill="#FDA81E"/>
<path fill-rule="evenodd" clip-rule="evenodd" d="M214.987 203.381L341.921 132.486L337.391 129.964L210.457 200.86L214.987 203.381Z" fill="#8282C1"/>
<path fill-rule="evenodd" clip-rule="evenodd" d="M214.987 203.398V291.251L210.457 288.729V200.877L214.987 203.398Z" fill="#6565B3"/>
<path fill-rule="evenodd" clip-rule="evenodd" d="M214.77 291.25L341.704 220.355V132.502L214.77 203.397V291.25Z" fill="#434387"/>
<path fill-rule="evenodd" clip-rule="evenodd" d="M291.492 304.939L321.62 288.099L294.922 215.164L264.797 232.004L291.492 304.939Z" fill="#323264"/>
<path fill-rule="evenodd" clip-rule="evenodd" d="M31.8741 418.21C31.0119 417.861 30.1501 417.456 29.3418 417C31.7128 413.549 34.8374 410.511 38.4478 407.743C36.1845 411.38 33.9217 414.915 31.8741 418.21ZM22.2292 408.39C22.0137 407.608 21.9042 406.801 21.8503 405.973C23.898 403.739 26.5928 402.162 29.826 401.067C27.2933 403.906 24.7619 406.349 22.2292 408.39Z" fill="#3332B4"/>
<path d="M152.12 152.681C153.541 153.368 155.069 153.196 155.534 152.296C155.999 151.397 155.225 150.11 153.804 149.423C152.383 148.736 150.853 148.908 150.388 149.808C149.923 150.707 150.699 151.994 152.12 152.681Z" fill="#B66A02"/>
<path d="M148.521 446.501C147.046 447.072 145.537 446.778 145.151 445.844C144.764 444.91 145.647 443.691 147.121 443.12C148.596 442.549 150.106 442.842 150.492 443.776C150.879 444.71 149.996 445.93 148.521 446.501Z" fill="#1A19CB"/>
<path fill-rule="evenodd" clip-rule="evenodd" d="M52.9011 424.74C52.955 424.871 53.064 425.014 53.1179 425.168C53.549 426.095 53.44 427.067 52.9011 427.442V427.393C52.9011 426.511 52.9011 425.629 52.9011 424.747V424.74Z" fill="#1A19CB"/>
<path fill-rule="evenodd" clip-rule="evenodd" d="M237.688 147.24C237.472 148.326 237.256 149.404 236.987 150.471C236.394 150.276 236.179 149.42 236.448 148.543C236.663 147.825 237.203 147.312 237.688 147.24Z" fill="#B66A02"/>
<path d="M236.971 142.826C236.712 143.63 236.061 144.149 235.516 143.984C234.972 143.82 234.741 143.035 235.001 142.231C235.26 141.427 235.912 140.908 236.456 141.072C237 141.236 237.231 142.022 236.971 142.826Z" fill="#B66A02"/>
<path d="M232.746 150.183C232.382 150.983 231.648 151.444 231.107 151.214C230.566 150.983 230.422 150.149 230.786 149.349C231.15 148.549 231.884 148.088 232.425 148.318C232.966 148.548 233.11 149.384 232.746 150.183Z" fill="#B66A02"/>
<path d="M156.72 165.369C158.141 166.056 159.67 165.884 160.135 164.984C160.6 164.085 159.825 162.799 158.404 162.111C156.983 161.424 155.454 161.596 154.989 162.496C154.524 163.395 155.299 164.682 156.72 165.369Z" fill="#B66A02"/>
<path d="M142.771 458.806C141.296 459.378 139.787 459.083 139.401 458.15C139.014 457.216 139.896 455.996 141.371 455.425C142.846 454.854 144.356 455.148 144.742 456.082C145.128 457.015 144.246 458.235 142.771 458.806Z" fill="#1A19CB"/>
<path d="M170.233 162.623C171.654 163.31 173.183 163.137 173.648 162.238C174.113 161.338 173.338 160.052 171.917 159.365C170.496 158.678 168.966 158.85 168.501 159.749C168.036 160.649 168.812 161.936 170.233 162.623Z" fill="#B66A02"/>
<path d="M129.545 454.983C128.07 455.554 126.562 455.26 126.175 454.326C125.789 453.392 126.671 452.172 128.146 451.601C129.621 451.03 131.13 451.324 131.517 452.258C131.903 453.192 131.02 454.412 129.545 454.983Z" fill="#1A19CB"/>
<path d="M55.0321 439.797C55.5012 440.799 56.4311 441.37 57.1094 441.074C57.7877 440.777 57.9574 439.724 57.4884 438.721C57.0193 437.719 56.0891 437.147 55.4108 437.444C54.7325 437.741 54.5631 438.794 55.0321 439.797Z" fill="#1A19CB"/>
</svg>
